<?xml version="1.0" standalone="no"?>
<!DOCTYPE svg PUBLIC "-//W3C//DTD SVG 20010904//EN"
 "http://www.w3.org/TR/2001/REC-SVG-20010904/DTD/svg10.dtd">
<svg version="1.0" xmlns="http://www.w3.org/2000/svg"
 width="238.000000pt" height="238.000000pt" viewBox="0 0 238.000000 238.000000"
 preserveAspectRatio="xMidYMid meet">
<metadata>
Created by potrace 1.14, written by Peter Selinger 2001-2017
</metadata>
<g transform="translate(0.000000,238.000000) scale(0.100000,-0.100000)"
fill="#000000" stroke="none">
<path d="M1751 2216 c-72 -72 -90 -96 -79 -102 24 -15 127 -142 175 -217 75
-117 162 -318 179 -413 3 -16 9 -45 14 -64 22 -90 32 -313 18 -405 -4 -27 -10
-68 -13 -90 -27 -221 -171 -516 -342 -698 l-41 -44 92 -92 92 -92 43 46 c62
66 163 202 212 287 85 145 174 381 194 516 3 21 8 49 10 62 17 86 23 269 12
390 -19 204 -78 413 -168 592 -45 91 -132 221 -204 308 -105 126 -86 124 -194
16z"/>
<path d="M1333 1861 c-118 -118 -112 -104 -69 -152 92 -101 162 -245 192 -389
22 -109 15 -292 -15 -395 -30 -102 -84 -205 -153 -291 l-60 -76 88 -89 88 -89
25 23 c91 83 210 293 254 447 31 107 37 150 42 280 8 236 -58 456 -195 654
-44 63 -115 146 -125 146 -2 0 -34 -31 -72 -69z"/>
<path d="M59 1830 c-1 -3 -2 -321 -3 -708 l-2 -702 322 0 c223 1 337 5 375 14
188 44 301 194 293 387 -6 140 -87 262 -204 307 -30 12 -49 21 -41 21 27 2
116 53 145 84 53 59 80 132 80 222 -1 186 -81 303 -244 356 -60 20 -89 21
-392 23 -181 1 -329 -1 -329 -4z m646 -203 c83 -37 119 -99 116 -197 -2 -64
-17 -102 -54 -137 -50 -47 -87 -54 -294 -54 -103 -1 -195 0 -203 0 -13 1 -15
29 -14 204 1 111 2 203 3 204 0 1 92 1 204 -1 168 -1 209 -5 242 -19z m3 -587
c88 -27 127 -91 127 -210 0 -74 -3 -90 -24 -121 -58 -85 -142 -107 -391 -99
l-165 5 0 215 c-1 118 3 217 7 220 16 12 403 3 446 -10z"/>
</g>
</svg>
